<svg width="2600" height="650" version="1.1" viewBox="0 0 687.91 171.98" xmlns="http://www.w3.org/2000/svg">
 <path d="m297.73 47.187c-1.8832 0-3.8047 0.50964-5.7663 1.5296-1.9616 1.02-3.6092 2.0795-4.9431 3.178-4.5508 3.7662-7.1008 9.0636-7.6501 15.89-0.15682 0.70616-0.23537 1.4112-0.23537 2.1174v2.2361c0 1.8046 0.11715 3.6496 0.35228 5.5327 0.31385 1.8046 0.7468 3.6094 1.296 5.414 0.62771 1.7262 1.373 3.3739 2.2361 4.9431 0.94152 1.4908 2.0795 2.784 3.4134 3.8825 2.2754 1.8046 4.7853 3.0212 7.5315 3.649 2.8247 0.62768 5.4533 0.9419 7.8856 0.9419h13.3c1.9615 0 3.6475 0.19542 5.0599 0.58776 1.4908 0.31383 2.6288 0.90388 3.4134 1.767 0.94153 1.0984 1.4914 2.3533 1.6483 3.7657 0.15682 1.3339 0.23542 2.629 0.23542 3.8844 0 0.86311-0.04 1.6869-0.11848 2.4715-0.0785 0.78461-0.31222 1.6085-0.70453 2.4715-0.39235 0.94157-1.0207 1.9992-1.8838 3.1761-0.86306 1.0984-1.8824 1.6483-3.0593 1.6483h-37.898c-0.78461 0-1.1773 0.39274-1.1773 1.1774v12.946c0 0.78461 0.39274 1.1773 1.1773 1.1773h42.842c1.7261 0 3.531-0.50962 5.414-1.5296 1.9616-1.0984 3.6092-2.1963 4.9431-3.2948 4.3939-3.8447 6.9038-9.3375 7.5314-16.477 0.15681-0.62772 0.23542-1.2945 0.23542-2.0006v-2.4715c0-1.8046-0.11715-3.6879-0.35232-5.6495-0.23538-1.9616-0.66831-3.8449-1.296-5.6495-0.54921-1.8046-1.2944-3.4925-2.2361-5.0617-0.86308-1.5692-1.9609-2.9027-3.2948-4.0012-2.2754-1.8831-4.747-3.138-7.4146-3.7657-2.6677-0.70618-5.2178-1.0587-7.6501-1.0587h-13.181c-1.8046 0-3.4925-0.07861-5.0617-0.23549-1.4908-0.15692-2.6672-0.66654-3.5303-1.5296-0.94158-1.02-1.4914-2.1982-1.6483-3.5321-0.15681-1.3339-0.23538-2.629-0.23538-3.8844 0-0.78464 0.0401-1.5683 0.1186-2.3529s0.31225-1.5702 0.70456-2.3548c0.39232-0.86309 1.0207-1.7654 1.8838-2.7071 0.94154-1.02 1.9608-1.5296 3.0593-1.5296h34.014c0.78464 0 1.1773-0.39274 1.1773-1.1773v-12.946c0-0.78462-0.39272-1.1773-1.1773-1.1773h-38.957zm54.963 0c-0.78468 0-1.1774 0.39275-1.1774 1.1773v82.033c0 0.78461 0.39272 1.1773 1.1774 1.1773h12.005c0.78462 0 1.1755-0.39274 1.1755-1.1773v-82.032c0-0.78463-0.39084-1.1773-1.1755-1.1773h-12.005zm190.55 0c-0.78463 0-1.1774 0.39275-1.1774 1.1773v12.005c0 0.78463 0.39276 1.1755 1.1774 1.1755h12.005c0.7846 0 1.1755-0.39088 1.1755-1.1755v-12.005c0-0.78462-0.39093-1.1773-1.1755-1.1773zm-151.82 23.069c-0.86308 0-1.5298 0.3142-2.0006 0.9419l-19.066 21.655c-0.62772 0.78462-1.1392 1.6487-1.5315 2.5902-0.39232 0.86309-0.58778 1.6083-0.58778 2.2361 0 0.86309 0.19517 1.7654 0.58778 2.7071 0.39231 0.86308 0.86358 1.6467 1.4129 2.3529l20.479 27.777c0.54923 0.70617 1.216 1.0587 2.0006 1.0587h15.183c0.6277 0 0.74459-0.27398 0.35229-0.82323l-23.303-31.66c-0.15681-0.15692-0.3542-0.39256-0.58959-0.70642-0.15682-0.31385-0.23539-0.5495-0.23539-0.70642s0.0786-0.3542 0.23539-0.5896c0.23539-0.23536 0.43265-0.4308 0.58959-0.58776l22.009-25.069c0.31384-0.31386 0.43071-0.58784 0.3523-0.82323 0-0.23539-0.19516-0.35228-0.58779-0.35229h-15.3zm18.595 0c-0.54923 0-0.82323 0.274-0.82323 0.82324 0 0.23537 0.0383 0.39246 0.1169 0.47095l19.068 56.139c0.39232 1.177 0.9403 2.0409 1.6465 2.5902 0.78464 0.47077 1.53 0.78497 2.2361 0.9419 0.70615 0.15691 1.3346 0.23547 1.8838 0.23547 0.54922 0 0.8232 0.0786 0.8232 0.23548v0.1169l-8.2378 21.773v0.35412c0 0.31387 0.19516 0.47098 0.58776 0.47098h14.006c1.02 0 1.6484-0.31421 1.8838-0.94191l31.424-81.915c0.0785-0.15692 0.1186-0.31401 0.1186-0.47095 0-0.54923-0.39277-0.82322-1.1774-0.82324h-14.123c-0.70616 0-1.1391 0.23566-1.296 0.70643l-14.946 39.426c-0.0786 0.23536-0.23565 0.6281-0.47095 1.1773-0.15681 0.47079-0.3542 0.98046-0.58962 1.5296-0.23539 0.47079-0.5094 0.90371-0.82322 1.296-0.31387 0.39232-0.62805 0.58777-0.94189 0.58777-0.31385 0-0.62619-0.19545-0.94003-0.58777-0.31387-0.47076-0.62808-0.94204-0.9419-1.4128-0.23539-0.54923-0.43268-1.0589-0.58961-1.5296-0.15683-0.54923-0.27381-0.94197-0.35228-1.1773l-12.477-39.192c-0.23542-0.54923-0.70485-0.82323-1.411-0.82323h-13.654zm72.381 0c-0.78464 0-1.1756 0.39088-1.1756 1.1755v81.092c0 0.78463 0.39088 1.1774 1.1756 1.1774h12.005c0.7846 0 1.1773-0.39275 1.1773-1.1774v-19.772c0-0.78463 0.39271-1.1773 1.1773-1.1773h12.358c3.9231 0 7.4925-0.62654 10.709-1.8819 3.2954-1.2554 6.0811-3.1789 8.3565-5.7682 2.3539-2.5892 4.1586-5.8846 5.414-9.8861 1.3339-4.0016 2.0006-8.7875 2.0006-14.358 0-3.7662-0.39273-7.4141-1.1774-10.945-0.78459-3.5309-2.118-6.6709-4.0011-9.4171-1.8047-2.7462-4.2762-4.9418-7.4147-6.5896-3.06-1.6477-6.9052-2.4715-11.534-2.4715h-29.071zm60.849 0c-0.78465 0-1.1774 0.39088-1.1774 1.1755v58.965c0 0.78462 0.39278 1.1773 1.1774 1.1773h12.005c0.78463 0 1.1755-0.39276 1.1755-1.1773v-58.965c0-0.78465-0.39088-1.1755-1.1755-1.1755zm52.609 0c-3.9231 0-7.8468 0.50965-11.77 1.5296-3.8447 0.94156-7.3354 2.6276-10.474 5.0599-3.06 2.4323-5.5717 5.7277-7.5333 9.8861-1.8832 4.08-2.8238 9.2587-2.8238 15.535 0 5.1786 0.54984 9.6118 1.6483 13.3 1.177 3.6877 3.0986 6.7492 5.7663 9.1816 2.7462 2.3539 6.3155 4.0801 10.709 5.1786 4.4724 1.0984 10.006 1.6465 16.596 1.6465h19.889c0.78461 0 1.1774-0.39276 1.1774-1.1774v-12.004c0-0.78463-0.39277-1.1774-1.1774-1.1774h-28.01c-1.6478 0-3.2169-0.19544-4.7077-0.58776-1.4908-0.47076-2.7859-1.0608-3.8844-1.7669-1.02-0.78461-1.8438-1.6468-2.4715-2.5884-0.62768-1.02-0.94189-2.1178-0.94189-3.2948 0-0.78462 0.39274-1.1773 1.1773-1.1773h43.546c0.78463 0 1.1774-0.39272 1.1774-1.1773v-12.241c0-3.6878-0.54984-7.0214-1.6483-10.003-1.02-2.9816-2.6677-5.4933-4.943-7.5334-2.2754-2.1185-5.178-3.726-8.7088-4.8244-3.5309-1.177-7.7286-1.7651-12.594-1.7651zm51.786 0c-2.1184 0-4.1186 0.43109-6.0018 1.2942-1.883 0.78462-3.5308 1.8825-4.943 3.2948-1.4123 1.4123-2.5504 3.06-3.4134 4.9431-0.78464 1.8832-1.1773 3.845-1.1773 5.885v44.723c0 0.7846 0.39276 1.1773 1.1773 1.1773h13.181c0.78461 0 1.1773-0.39275 1.1773-1.1773v-40.603c0-0.47077 0.11714-0.98045 0.35227-1.5296 0.23538-0.62771 0.54957-1.1775 0.94192-1.6483 0.47074-0.54925 0.98043-1.0205 1.5296-1.4129 0.54923-0.39231 1.1776-0.58777 1.8838-0.58777h11.299c0.78462 1e-5 1.1755-0.39274 1.1755-1.1773v-12.005c0-0.78465-0.39089-1.1755-1.1755-1.1755h-16.006zm-52.844 12.829c4.9432 0 8.7884 0.90237 11.534 2.7071 2.7462 1.7262 4.118 4.0789 4.118 7.0605 0 0.78463-0.39273 1.1773-1.1774 1.1773h-30.246c-0.78462 0-1.1773-0.39274-1.1773-1.1773 0-1.4908 0.58817-2.8243 1.7651-4.0012 1.177-1.2554 2.6292-2.2746 4.3554-3.0593 1.8046-0.86308 3.6478-1.5298 5.5309-2.0006 1.9616-0.47079 3.7279-0.70642 5.2973-0.70642zm-98.035 1.5296h15.535c1.177 0 2.3131 0.39275 3.4116 1.1773 1.177 0.70617 2.1981 1.6085 3.0612 2.7071 0.94156 1.0984 1.6868 2.3534 2.2361 3.7657 0.62768 1.4123 0.94192 2.7458 0.94192 4.0012v9.063c0 1.3339-0.31424 2.7075-0.94192 4.1198-0.54924 1.4123-1.2945 2.7056-2.2361 3.8825-0.86309 1.0984-1.8842 2.041-3.0612 2.8257-1.0984 0.70617-2.2347 1.0587-3.4116 1.0587h-15.535c-0.78462 0-1.1774-0.39273-1.1774-1.1773v-30.246c0-0.78462 0.39275-1.1773 1.1774-1.1773z" fill="#a1a1a1" opacity="1" stroke-width="7.3559"/>
 <path d="m133.03 13.627c-23.618 0.0581-38.81 10.61-47.031 21.428-1.7993 2.3676-4.3873 6.0505-5.6252 8.3089 5.4051-0.43417 13.801-0.58446 18.639 0.96517 5.8645-7.2039 15.89-14.636 34.058-14.681 15.881-0.03906 24.148 7.306 29.629 15.157 5.4252-1.3579 12.401-2.2369 17.596-1.6428-1.2197-2.4207-2.6723-4.9655-4.4585-7.5246-7.5302-10.789-21.554-22.063-42.804-22.011zm-46.145 34.789c-2.9457 0.05448-5.8519 0.36837-8.77 0.87988l1e-3 -0.0061c-6.21e-4 0.0016-0.0015 0.0039-0.0022 0.0061-12.578 2.0029-22.78 7.8715-29.771 16.034-7.5256 8.7856-11.25 19.158-11.844 30.469 4.995 3.4853 10.17 5.8942 15.995 8.0296-0.07652-0.74631-0.15884-1.4918-0.1905-2.2412-0.40944-9.7107 2.4417-19.106 8.2078-25.837 5.7662-6.7315 14.357-11.291 27.704-11.189 13.372 0.10217 19.099 4.136 23.872 10.912 1.0752 1.5261 2.0328 3.293 2.9471 5.1644-1.8e-4 1.81e-4 -8.8e-4 -1.59e-4 -1e-3 0 1.6e-4 2.82e-4 -1.7e-4 7.81e-4 0 1e-3 3.0392 5.2898 4.509 10.864 5.888 16.717 1.5e-4 -1.8e-4 8.3e-4 1.61e-4 1e-3 0 0.67026 2.3161 1.3815 4.4054 2.0496 6.8351 2.3782 8.6496 4.9106 17.873 9.4573 26.366-2.2e-4 1.9e-4 -8.3e-4 -1.6e-4 -1e-3 0 1.4e-4 2.9e-4 -1.2e-4 7.8e-4 0 1e-3 2.5372 4.9865 5.8235 8.9959 9.4915 12.507 8.1315 7.9384 19.715 13.495 35.446 14.093 16.7 0.63465 30.336-6.2908 38.932-16.788 7.1223-8.6986 10.581-18.754 11.66-29.876-5.0518-2.805-8.5262-4.2383-15.271-5.6804-0.34199 9.558-3.406 18.843-8.7812 25.408-5.7422 7.0128-13.696 11.392-25.927 10.927-11.977-0.4552-18.92-3.5985-24.042-8.4118h-1e-3c-4.7883-4.1987-6.877-8.9635-9.1124-13.697-2.481-5.6973-4.501-12.173-6.4036-19.093-1.3688-4.9783-2.7957-10.12-4.4719-15.188h-1e-3c-1.8012-5.3635-4.2996-10.351-6.8818-15.295h1e-3v-1e-3c-0.64319-1.0662-1.1562-2.1882-1.8819-3.2183-6.1091-8.6714-15.918-15.262-29.291-17.151-3.0759-0.52448-6.0612-0.7294-9.0069-0.67494zm91.62 0.11178c-4.2504-0.0018-8.5024 0.26761-12.761 1.3209-14.624 2.7279-25.805 9.2253-35.208 16.742l7.4066 14.54c10.428-9.1275 21.733-15.841 40.17-16.575 0.7469-0.02963 1.4789-0.04046 2.1945-0.03306 10.734 0.11079 18.007 4.3405 23.413 10.929 0.98709 1.2032 2.1466 3.4301 2.9523 4.8221 6.8082-0.06543 12.222 0.83117 18.431 2.2183-2.0208-5.8078-5.0608-12.405-8.9963-17.202-7.6508-9.3256-19.245-15.843-33.351-16.689-1.4165-0.04166-2.8335-0.07293-4.2504-0.07353zm-158.56 34.483-14.049 7.6922s5.9803 10.979 17.821 20.431c4.4343 3.539 10.122 6.6364 16.384 9.1902 0 0 6.8267 2.8764 10.378 3.5889 3.5506 0.71249 9.7213 1.0869 9.7213 1.0869l0.0061 6e-3c-0.0015-2e-3 -0.0022-4e-3 -0.0039-6e-3 5.5532 0.26336 11.43-0.10379 17.712-1.5414 17.62-4.0324 28.884-13.163 39.286-23.026-1.333-5.5839-2.7097-11.276-5.5348-16.457-10.982 10.848-21.332 20.208-37.327 23.868-8.1962 1.8758-15.118 1.5022-21.272 0.11699-3.01e-4 -2e-3 -7.23e-4 -4e-3 -1e-3 -6e-3v6e-3c-6.3421-1.0914-11.585-3.7141-16.694-7.5546-0.86083-0.61681-1.8563-1.1543-2.6604-1.796-9.2203-7.3589-13.765-15.599-13.765-15.599zm184.19 1.5351c-4.9058 0.12698-10.078 0.73713-15.686 2.2712-19.75 5.403-30.631 17.796-40.426 28.698 1.8565 5.3435 5.0941 9.917 8.7203 14.274 11.228-12.123 19.256-22.953 35.937-27.516 4.6039-1.2595 8.7902-1.924 12.605-2.1252 0.335-0.018 0.66414-0.0271 0.98752-0.0311 2.2636-0.0278 4.2616 0.25443 6.3 0.48964 8.1428 0.8151 12.23 3.0126 15.983 5.3239 0.73303 0.44495 1.6067 0.82343 2.2846 1.2877 8.0112 5.4873 11.499 11.78 11.499 11.78l14.007-7.7854s-5.3497-9.6105-16.452-17.215c-3.6124-2.4743-8.1558-4.5366-13.103-6.2752-5.8046-1.5553-11.746-2.6152-17.832-3.1582-3.5e-4 0-6.8e-4 2e-5 -1e-3 0-1.5819-0.04867-3.1879-0.05989-4.8229-0.01798zm-161.86 42.061c8.6163 16.394 26.043 29.779 49.317 30.549 20.413 0.67472 34.892-4.2386 46.037-11.21-3.1384-3.7854-6.2858-7.5534-8.5576-13.036-8.4356 5.4439-19.239 8.821-36.947 8.2357-11.916-0.39386-21.845-5.2089-28.289-11.455-7.4525 0.17868-14.756-0.28471-21.56-3.0827z" color="#000000" fill="#5df" stroke-width="2.0032" style="-inkscape-stroke:none;paint-order:stroke fill markers"/>
</svg>
